<svg xmlns="http://www.w3.org/2000/svg" width="524.84" height="524.84" viewBox="0 0 524.84 524.84"><path d="M40.908 319.876h307.608v42.55H124.724c-6.673-18.325-24.265-31.464-44.881-31.464-20.307 0-37.683 12.75-44.581 30.66-8.5-2.458-14.72-10.271-14.72-19.562v-1.807c0-11.261 9.116-20.377 20.366-20.377zm72.89 54.096c0 19.595-15.943 35.535-35.543 35.535-19.587 0-35.535-15.94-35.535-35.535s15.948-35.546 35.535-35.546c19.6 0 35.543 15.951 35.543 35.546zm-10.87 0c0-13.604-11.067-24.674-24.673-24.674-13.604 0-24.665 11.07-24.665 24.674 0 13.598 11.067 24.668 24.665 24.668 13.612 0 24.673-11.064 24.673-24.668zm370.082 0c0 19.595-15.946 35.535-35.539 35.535-19.595 0-35.54-15.94-35.54-35.535s15.945-35.546 35.54-35.546c19.593 0 35.539 15.951 35.539 35.546zm-10.867 0c0-13.604-11.07-24.674-24.666-24.674-13.605 0-24.668 11.07-24.668 24.674 0 13.598 11.062 24.668 24.668 24.668 13.596 0 24.666-11.064 24.666-24.668zm62.697-102.085v80.355a6.791 6.791 0 0 1-6.788 6.791h-35.505c-7.521-16.536-24.167-28.071-43.497-28.071-19.315 0-35.972 11.535-43.497 28.071h-23.948a6.796 6.796 0 0 1-6.798-6.791V190.86a6.793 6.793 0 0 1 6.798-6.791h89.399c3.754 0 9.455 1.251 13.587 6.791l50.249 81.027zm-31.679-17.653l-30.559-50.703c-2.363-4.367-5.264-6.788-15.628-6.788h-55.451a6.79 6.79 0 0 0-6.793 6.788v50.703a6.79 6.79 0 0 0 6.793 6.791h94.839c3.75 0 6.799-3.037 6.799-6.791zm26.47 77.177c0-3.489-2.835-6.336-6.337-6.336s-6.336 2.847-6.336 6.336v12.008c0 3.501 2.834 6.335 6.336 6.335s6.337-2.834 6.337-6.335v-12.008zM0 307.717h348.516V115.333H0v192.384z"/></svg>