<svg xmlns="http://www.w3.org/2000/svg" viewBox="0 0 44.569 44.569"><path d="M11.698 1.739c3.111 0 5.65 1.048 7.603 2.857 1.254 1.159 2.254 2.619 2.984 4.317.73-1.698 1.73-3.159 2.968-4.317 1.952-1.809 4.508-2.857 7.619-2.857 3.238 0 6.158 1.317 8.269 3.428a11.647 11.647 0 0 1 3.428 8.27c0 5.54-6.063 12.031-10.365 16.619-.778.825-1.492 1.587-2.143 2.317l-8.936 10.079a1.108 1.108 0 0 1-1.571.095c-.048-.032-.079-.063-.111-.095l-8.936-10.079c-.587-.651-1.349-1.46-2.174-2.349C6.031 25.437 0 18.993 0 13.437c0-3.222 1.317-6.143 3.428-8.27 2.127-2.11 5.048-3.428 8.27-3.428zm6.095 4.492c-1.54-1.429-3.571-2.254-6.095-2.254-2.603 0-4.968 1.063-6.682 2.778s-2.778 4.079-2.778 6.682c0 4.682 5.682 10.746 9.73 15.063.794.841 1.54 1.635 2.206 2.397l8.111 9.143 8.111-9.143c.603-.667 1.365-1.492 2.19-2.365 4.032-4.317 9.746-10.412 9.746-15.095a9.48 9.48 0 0 0-2.762-6.682 9.44 9.44 0 0 0-6.698-2.778c-2.524 0-4.555.825-6.095 2.254-1.682 1.555-2.825 3.857-3.381 6.619-.079.444-.413.81-.889.905a1.106 1.106 0 0 1-1.317-.873c-.556-2.762-1.699-5.079-3.397-6.651z" fill="#ffde00"/></svg>