<svg xmlns="http://www.w3.org/2000/svg" width="81.016" height="81.016" viewBox="0 0 81.016 81.016"><circle cx="40.509" cy="17.217" r="17.217"/><path d="M47.811 35.606H33.203c-12.152 0-22.041 9.888-22.041 22.042v17.869l.045.279 1.232.385c11.598 3.623 21.676 4.834 29.971 4.834 16.199 0 25.59-4.621 26.172-4.914l1.15-.584h.121V57.648c.001-12.154-9.886-22.042-22.042-22.042zM43.91 70.283l-3.152 4.613a.224.224 0 0 1-.186.1h-.006a.221.221 0 0 1-.186-.104l-2.928-4.616a.233.233 0 0 1-.035-.136l1.465-22.403a.223.223 0 0 1 .225-.209h3.039c.119 0 .217.09.227.209l1.574 22.401a.217.217 0 0 1-.037.145zM42.484 46.85h-3.613l-3.141-6.492c0-.623.504-1.125 1.127-1.125H44.4c.621 0 1.125.502 1.125 1.125l-3.041 6.492z"/></svg>